{"asset":{"version":"2.0","generator":"Blockbench 4.12.2 glTF exporter"},"scenes":[{"nodes":[24],"name":"blockbench_export"}],"scene":0,"nodes":[{"name":"Torso","mesh":0},{"translation":[0,-0.1875,0.1875],"name":"cube","mesh":1},{"name":"bone2","children":[1]},{"translation":[0,-0.3125,0.1875],"name":"cube","mesh":2},{"translation":[0,-0.375,0.1875],"name":"cube","mesh":3},{"translation":[0,-0.1875,0],"name":"bone3","children":[3,4]},{"translation":[0,0,-0.125],"name":"Perna esquerda","children":[2,5]},{"translation":[0,-0.1875,0.1875],"name":"cube","mesh":4},{"translation":[0,-0.375,0.1875],"name":"cube","mesh":5},{"translation":[0,-0.3125,0.1875],"name":"cube","mesh":6},{"translation":[0,-0.1875,0],"name":"bone","children":[8,9]},{"translation":[0,0,-0.0625],"name":"bone4","children":[7,10]},{"translation":[0,0,0.1875],"name":"Perna direita","children":[11]},{"translation":[0,-0.0625,0],"name":"cube","mesh":7},{"translation":[0,-0.125,0],"name":"cube","mesh":8},{"translation":[0,-0.1875,0],"name":"Braço_direito2","children":[14]},{"translation":[0,0.5,0.25],"name":"Braço direito","children":[13,15]},{"translation":[0,-0.0625,0],"name":"cube","mesh":9},{"translation":[0,-0.125,0],"name":"cube","mesh":10},{"translation":[0,-0.1875,0],"name":"Braço_esquerdo2","children":[18]},{"translation":[0,0.5,-0.25],"name":"Braço esquerdo","children":[17,19]},{"name":"cube","mesh":11},{"translation":[0,0.5625,0],"name":"Cabeça","children":[21]},{"translation":[0,0.5625,0],"name":"corpo","children":[0,6,12,16,20,22]},{"children":[23]}],"bufferViews":[{"buffer":0,"byteOffset":0,"byteLength":288,"target":34962,"byteStride":12},{"buffer":0,"byteOffset":288,"byteLength":288,"target":34962,"byteStride":12},{"buffer":0,"byteOffset":576,"byteLength":192,"target":34962,"byteStride":8},{"buffer":0,"byteOffset":768,"byteLength":72,"target":34963},{"buffer":0,"byteOffset":840,"byteLength":288,"target":34962,"byteStride":12},{"buffer":0,"byteOffset":1128,"byteLength":288,"target":34962,"byteStride":12},{"buffer":0,"byteOffset":1416,"byteLength":192,"target":34962,"byteStride":8},{"buffer":0,"byteOffset":1608,"byteLength":72,"target":34963},{"buffer":0,"byteOffset":1680,"byteLength":288,"target":34962,"byteStride":12},{"buffer":0,"byteOffset":1968,"byteLength":288,"target":34962,"byteStride":12},{"buffer":0,"byteOffset":2256,"byteLength":192,"target":34962,"byteStride":8},{"buffer":0,"byteOffset":2448,"byteLength":72,"target":34963},{"buffer":0,"byteOffset":2520,"byteLength":288,"target":34962,"byteStride":12},{"buffer":0,"byteOffset":2808,"byteLength":288,"target":34962,"byteStride":12},{"buffer":0,"byteOffset":3096,"byteLength":192,"target":34962,"byteStride":8},{"buffer":0,"byteOffset":3288,"byteLength":72,"target":34963},{"buffer":0,"byteOffset":3360,"byteLength":288,"target":34962,"byteStride":12},{"buffer":0,"byteOffset":3648,"byteLength":288,"target":34962,"byteStride":12},{"buffer":0,"byteOffset":3936,"byteLength":192,"target":34962,"byteStride":8},{"buffer":0,"byteOffset":4128,"byteLength":72,"target":34963},{"buffer":0,"byteOffset":4200,"byteLength":288,"target":34962,"byteStride":12},{"buffer":0,"byteOffset":4488,"byteLength":288,"target":34962,"byteStride":12},{"buffer":0,"byteOffset":4776,"byteLength":192,"target":34962,"byteStride":8},{"buffer":0,"byteOffset":4968,"byteLength":72,"target":34963},{"buffer":0,"byteOffset":5040,"byteLength":288,"target":34962,"byteStride":12},{"buffer":0,"byteOffset":5328,"byteLength":288,"target":34962,"byteStride":12},{"buffer":0,"byteOffset":5616,"byteLength":192,"target":34962,"byteStride":8},{"buffer":0,"byteOffset":5808,"byteLength":72,"target":34963},{"buffer":0,"byteOffset":5880,"byteLength":288,"target":34962,"byteStride":12},{"buffer":0,"byteOffset":6168,"byteLength":288,"target":34962,"byteStride":12},{"buffer":0,"byteOffset":6456,"byteLength":192,"target":34962,"byteStride":8},{"buffer":0,"byteOffset":6648,"byteLength":72,"target":34963},{"buffer":0,"byteOffset":6720,"byteLength":288,"target":34962,"byteStride":12},{"buffer":0,"byteOffset":7008,"byteLength":288,"target":34962,"byteStride":12},{"buffer":0,"byteOffset":7296,"byteLength":192,"target":34962,"byteStride":8},{"buffer":0,"byteOffset":7488,"byteLength":72,"target":34963},{"buffer":0,"byteOffset":7560,"byteLength":288,"target":34962,"byteStride":12},{"buffer":0,"byteOffset":7848,"byteLength":288,"target":34962,"byteStride":12},{"buffer":0,"byteOffset":8136,"byteLength":192,"target":34962,"byteStride":8},{"buffer":0,"byteOffset":8328,"byteLength":72,"target":34963},{"buffer":0,"byteOffset":8400,"byteLength":288,"target":34962,"byteStride":12},{"buffer":0,"byteOffset":8688,"byteLength":288,"target":34962,"byteStride":12},{"buffer":0,"byteOffset":8976,"byteLength":192,"target":34962,"byteStride":8},{"buffer":0,"byteOffset":9168,"byteLength":72,"target":34963},{"buffer":0,"byteOffset":9240,"byteLength":288,"target":34962,"byteStride":12},{"buffer":0,"byteOffset":9528,"byteLength":288,"target":34962,"byteStride":12},{"buffer":0,"byteOffset":9816,"byteLength":192,"target":34962,"byteStride":8},{"buffer":0,"byteOffset":10008,"byteLength":72,"target":34963},{"buffer":0,"byteOffset":10080,"byteLength":36},{"buffer":0,"byteOffset":10116,"byteLength":144},{"buffer":0,"byteOffset":10260,"byteLength":28},{"buffer":0,"byteOffset":10288,"byteLength":112},{"buffer":0,"byteOffset":10400,"byteLength":20},{"buffer":0,"byteOffset":10420,"byteLength":80},{"buffer":0,"byteOffset":10500,"byteLength":32},{"buffer":0,"byteOffset":10532,"byteLength":96},{"buffer":0,"byteOffset":10628,"byteLength":40},{"buffer":0,"byteOffset":10668,"byteLength":160},{"buffer":0,"byteOffset":10828,"byteLength":20},{"buffer":0,"byteOffset":10848,"byteLength":80},{"buffer":0,"byteOffset":10928,"byteLength":36},{"buffer":0,"byteOffset":10964,"byteLength":144},{"buffer":0,"byteOffset":11108,"byteLength":20},{"buffer":0,"byteOffset":11128,"byteLength":80},{"buffer":0,"byteOffset":11208,"byteLength":32},{"buffer":0,"byteOffset":11240,"byteLength":128},{"buffer":0,"byteOffset":11368,"byteLength":36},{"buffer":0,"byteOffset":11404,"byteLength":144}],"buffers":[{"byteLength":11548,"uri":"data:application/octet-stream;base64,"}],"accessors":[{"bufferView":0,"componentType":5126,"count":24,"max":[0.0625,0.5625,0.1875],"min":[-0.0625,0,-0.1875],"type":"VEC3"},{"bufferView":1,"componentType":5126,"count":24,"max":[1,1,1],"min":[-1,-1,-1],"type":"VEC3"},{"bufferView":2,"componentType":5126,"count":24,"max":[0.5,0.65625],"min":[0.25,0.1875],"type":"VEC2"},{"bufferView":3,"componentType":5123,"count":36,"max":[23],"min":[0],"type":"SCALAR"},{"bufferView":4,"componentType":5126,"count":24,"max":[0.0625,0.1875,-0.125],"min":[-0.0625,0,-0.25],"type":"VEC3"},{"bufferView":5,"componentType":5126,"count":24,"max":[1,1,1],"min":[-1,-1,-1],"type":"VEC3"},{"bufferView":6,"componentType":5126,"count":24,"max":[0.75,0.78125],"min":[0.0625,0],"type":"VEC2"},{"bufferView":7,"componentType":5123,"count":36,"max":[23],"min":[0],"type":"SCALAR"},{"bufferView":8,"componentType":5126,"count":24,"max":[0.0625,0.3125,-0.125],"min":[-0.0625,0,-0.25],"type":"VEC3"},{"bufferView":9,"componentType":5126,"count":24,"max":[1,1,1],"min":[-1,-1,-1],"type":"VEC3"},{"bufferView":10,"componentType":5126,"count":24,"max":[0.6875,0.78125],"min":[0.1875,0.125],"type":"VEC2"},{"bufferView":11,"componentType":5123,"count":36,"max":[23],"min":[0],"type":"SCALAR"},{"bufferView":12,"componentType":5126,"count":24,"max":[0.0625,0.0625,-0.125],"min":[-0.1875,0,-0.25],"type":"VEC3"},{"bufferView":13,"componentType":5126,"count":24,"max":[1,1,1],"min":[-1,-1,-1],"type":"VEC3"},{"bufferView":14,"componentType":5126,"count":24,"max":[0.875,0.78125],"min":[0,0],"type":"VEC2"},{"bufferView":15,"componentType":5123,"count":36,"max":[23],"min":[0],"type":"SCALAR"},{"bufferView":16,"componentType":5126,"count":24,"max":[0.0625,0.1875,-0.125],"min":[-0.0625,0,-0.25],"type":"VEC3"},{"bufferView":17,"componentType":5126,"count":24,"max":[1,1,1],"min":[-1,-1,-1],"type":"VEC3"},{"bufferView":18,"componentType":5126,"count":24,"max":[0.6875,0.75],"min":[0,0.65625],"type":"VEC2"},{"bufferView":19,"componentType":5123,"count":36,"max":[23],"min":[0],"type":"SCALAR"},{"bufferView":20,"componentType":5126,"count":24,"max":[0.0625,0.0625,-0.125],"min":[-0.1875,0,-0.25],"type":"VEC3"},{"bufferView":21,"componentType":5126,"count":24,"max":[1,1,1],"min":[-1,-1,-1],"type":"VEC3"},{"bufferView":22,"componentType":5126,"count":24,"max":[0.875,0.8125],"min":[0.25,0.1875],"type":"VEC2"},{"bufferView":23,"componentType":5123,"count":36,"max":[23],"min":[0],"type":"SCALAR"},{"bufferView":24,"componentType":5126,"count":24,"max":[0.0625,0.3125,-0.125],"min":[-0.0625,0,-0.25],"type":"VEC3"},{"bufferView":25,"componentType":5126,"count":24,"max":[1,1,1],"min":[-1,-1,-1],"type":"VEC3"},{"bufferView":26,"componentType":5126,"count":24,"max":[0.75,0.84375],"min":[0.5,0.3125],"type":"VEC2"},{"bufferView":27,"componentType":5123,"count":36,"max":[23],"min":[0],"type":"SCALAR"},{"bufferView":28,"componentType":5126,"count":24,"max":[0.0625,0.125,0.0625],"min":[-0.0625,-0.125,-0.0625],"type":"VEC3"},{"bufferView":29,"componentType":5126,"count":24,"max":[1,1,1],"min":[-1,-1,-1],"type":"VEC3"},{"bufferView":30,"componentType":5126,"count":24,"max":[0.625,0.6875],"min":[0,0],"type":"VEC2"},{"bufferView":31,"componentType":5123,"count":36,"max":[23],"min":[0],"type":"SCALAR"},{"bufferView":32,"componentType":5126,"count":24,"max":[0.0625,0.125,0.0625],"min":[-0.0625,-0.125,-0.0625],"type":"VEC3"},{"bufferView":33,"componentType":5126,"count":24,"max":[1,1,1],"min":[-1,-1,-1],"type":"VEC3"},{"bufferView":34,"componentType":5126,"count":24,"max":[0.65625,0.6875],"min":[0.53125,0],"type":"VEC2"},{"bufferView":35,"componentType":5123,"count":36,"max":[23],"min":[0],"type":"SCALAR"},{"bufferView":36,"componentType":5126,"count":24,"max":[0.0625,0.125,0.0625],"min":[-0.0625,-0.125,-0.0625],"type":"VEC3"},{"bufferView":37,"componentType":5126,"count":24,"max":[1,1,1],"min":[-1,-1,-1],"type":"VEC3"},{"bufferView":38,"componentType":5126,"count":24,"max":[0.4375,0.5],"min":[0.1875,0.1875],"type":"VEC2"},{"bufferView":39,"componentType":5123,"count":36,"max":[23],"min":[0],"type":"SCALAR"},{"bufferView":40,"componentType":5126,"count":24,"max":[0.0625,0.125,0.0625],"min":[-0.0625,-0.125,-0.0625],"type":"VEC3"},{"bufferView":41,"componentType":5126,"count":24,"max":[1,1,1],"min":[-1,-1,-1],"type":"VEC3"},{"bufferView":42,"componentType":5126,"count":24,"max":[0.5625,0.59375],"min":[0.1875,0.1875],"type":"VEC2"},{"bufferView":43,"componentType":5123,"count":36,"max":[23],"min":[0],"type":"SCALAR"},{"bufferView":44,"componentType":5126,"count":24,"max":[0.1875,0.375,0.1875],"min":[-0.1875,0,-0.1875],"type":"VEC3"},{"bufferView":45,"componentType":5126,"count":24,"max":[1,1,1],"min":[-1,-1,-1],"type":"VEC3"},{"bufferView":46,"componentType":5126,"count":24,"max":[0.5625,0.5625],"min":[0,0],"type":"VEC2"},{"bufferView":47,"componentType":5123,"count":36,"max":[23],"min":[0],"type":"SCALAR"},{"bufferView":48,"componentType":5126,"count":9,"max":[0.9070294499397278],"min":[0],"type":"SCALAR"},{"bufferView":49,"componentType":5126,"count":9,"max":[0,0,0.2798290252685547,0.9997619986534119],"min":[0,0,-0.659345805644989,0.751839816570282],"type":"VEC4"},{"bufferView":50,"componentType":5126,"count":7,"max":[0.9070294499397278],"min":[0],"type":"SCALAR"},{"bufferView":51,"componentType":5126,"count":7,"max":[0,0,0.15212339162826538,0.9997619986534119],"min":[0,0,-0.5,0.8660253882408142],"type":"VEC4"},{"bufferView":52,"componentType":5126,"count":5,"max":[0.9070294499397278],"min":[0],"type":"SCALAR"},{"bufferView":53,"componentType":5126,"count":5,"max":[0,0,0.19509032368659973,1],"min":[0,0,-0.10886687785387039,0.9807852506637573],"type":"VEC4"},{"bufferView":54,"componentType":5126,"count":8,"max":[0.9070294499397278],"min":[0],"type":"SCALAR"},{"bufferView":55,"componentType":5126,"count":8,"max":[0,0.625,0],"min":[0,0.5,0],"type":"VEC3"},{"bufferView":56,"componentType":5126,"count":10,"max":[0.9070294499397278],"min":[0],"type":"SCALAR"},{"bufferView":57,"componentType":5126,"count":10,"max":[0.022136995568871498,0,0.4809887707233429,0.9997619986534119],"min":[0,-0.0005978853441774845,-0.3826834261417389,0.8767267465591431],"type":"VEC4"},{"bufferView":58,"componentType":5126,"count":5,"max":[0.9070294499397278],"min":[0],"type":"SCALAR"},{"bufferView":59,"componentType":5126,"count":5,"max":[0.008222950622439384,0,-0.13052618503570557,0.9914448857307434],"min":[0,-0.004410766530781984,-0.44228869676589966,0.8968727588653564],"type":"VEC4"},{"bufferView":60,"componentType":5126,"count":9,"max":[0.9070294499397278],"min":[0],"type":"SCALAR"},{"bufferView":61,"componentType":5126,"count":9,"max":[0,0,0.5,0.9978589415550232],"min":[0,0,-0.30070579051971436,0.8660253882408142],"type":"VEC4"},{"bufferView":62,"componentType":5126,"count":5,"max":[0.9070294499397278],"min":[0],"type":"SCALAR"},{"bufferView":63,"componentType":5126,"count":5,"max":[0,0,-0.3214394748210907,0.9469301104545593],"min":[0,0,-0.5,0.8660253882408142],"type":"VEC4"},{"bufferView":64,"componentType":5126,"count":8,"max":[0.9070294499397278],"min":[0],"type":"SCALAR"},{"bufferView":65,"componentType":5126,"count":8,"max":[0,0,0.7798844575881958,0.9997619986534119],"min":[0,0,-0.02181488461792469,0.6259234547615051],"type":"VEC4"},{"bufferView":66,"componentType":5126,"count":9,"max":[0.9070294499397278],"min":[0],"type":"SCALAR"},{"bufferView":67,"componentType":5126,"count":9,"max":[0,0,0.8191520571708679,0.9990482330322266],"min":[0,0,0.04361938685178757,0.5735764503479004],"type":"VEC4"}],"materials":[{"pbrMetallicRoughness":{"metallicFactor":0,"roughnessFactor":1},"alphaMode":"MASK","alphaCutoff":0.05,"doubleSided":true}],"meshes":[{"primitives":[{"mode":4,"attributes":{"POSITION":0,"NORMAL":1,"TEXCOORD_0":2},"indices":3,"material":0}]},{"primitives":[{"mode":4,"attributes":{"POSITION":4,"NORMAL":5,"TEXCOORD_0":6},"indices":7,"material":0}]},{"primitives":[{"mode":4,"attributes":{"POSITION":8,"NORMAL":9,"TEXCOORD_0":10},"indices":11,"material":0}]},{"primitives":[{"mode":4,"attributes":{"POSITION":12,"NORMAL":13,"TEXCOORD_0":14},"indices":15,"material":0}]},{"primitives":[{"mode":4,"attributes":{"POSITION":16,"NORMAL":17,"TEXCOORD_0":18},"indices":19,"material":0}]},{"primitives":[{"mode":4,"attributes":{"POSITION":20,"NORMAL":21,"TEXCOORD_0":22},"indices":23,"material":0}]},{"primitives":[{"mode":4,"attributes":{"POSITION":24,"NORMAL":25,"TEXCOORD_0":26},"indices":27,"material":0}]},{"primitives":[{"mode":4,"attributes":{"POSITION":28,"NORMAL":29,"TEXCOORD_0":30},"indices":31,"material":0}]},{"primitives":[{"mode":4,"attributes":{"POSITION":32,"NORMAL":33,"TEXCOORD_0":34},"indices":35,"material":0}]},{"primitives":[{"mode":4,"attributes":{"POSITION":36,"NORMAL":37,"TEXCOORD_0":38},"indices":39,"material":0}]},{"primitives":[{"mode":4,"attributes":{"POSITION":40,"NORMAL":41,"TEXCOORD_0":42},"indices":43,"material":0}]},{"primitives":[{"mode":4,"attributes":{"POSITION":44,"NORMAL":45,"TEXCOORD_0":46},"indices":47,"material":0}]}],"animations":[{"name":"walking","samplers":[{"input":48,"output":49,"interpolation":"LINEAR"},{"input":50,"output":51,"interpolation":"LINEAR"},{"input":52,"output":53,"interpolation":"LINEAR"},{"input":54,"output":55,"interpolation":"LINEAR"},{"input":56,"output":57,"interpolation":"LINEAR"},{"input":58,"output":59,"interpolation":"LINEAR"},{"input":60,"output":61,"interpolation":"LINEAR"},{"input":62,"output":63,"interpolation":"LINEAR"},{"input":64,"output":65,"interpolation":"LINEAR"},{"input":66,"output":67,"interpolation":"LINEAR"}],"channels":[{"sampler":0,"target":{"node":6,"path":"rotation"}},{"sampler":1,"target":{"node":12,"path":"rotation"}},{"sampler":2,"target":{"node":11,"path":"rotation"}},{"sampler":3,"target":{"node":23,"path":"translation"}},{"sampler":4,"target":{"node":16,"path":"rotation"}},{"sampler":5,"target":{"node":15,"path":"rotation"}},{"sampler":6,"target":{"node":20,"path":"rotation"}},{"sampler":7,"target":{"node":19,"path":"rotation"}},{"sampler":8,"target":{"node":10,"path":"rotation"}},{"sampler":9,"target":{"node":5,"path":"rotation"}}]}]}
